Coordinates
version=1
nRows=13
nColumns=40
inDegrees=yes

Units are S.I. units (second, meters, Newtons, ...)
If the header above contains a line with 'inDegrees', this indicates whether rotational values are in degrees (yes) or radians (no).

endheader
time	pelvis_tilt	pelvis_list	pelvis_rotation	pelvis_tx	pelvis_ty	pelvis_tz	hip_flexion_r	hip_adduction_r	hip_rotation_r	knee_angle_r	knee_angle_r_beta	ankle_angle_r	subtalar_angle_r	mtp_angle_r	hip_flexion_l	hip_adduction_l	hip_rotation_l	knee_angle_l	knee_angle_l_beta	ankle_angle_l	subtalar_angle_l	mtp_angle_l	lumbar_extension	lumbar_bending	lumbar_rotation	arm_flex_r	arm_add_r	arm_rot_r	elbow_flex_r	pro_sup_r	wrist_flex_r	wrist_dev_r	arm_flex_l	arm_add_l	arm_rot_l	elbow_flex_l	pro_sup_l	wrist_flex_l	wrist_dev_l
      0.63000000	      2.31400609	     -7.76885208	     84.97246349	      0.22134434	      0.90811628	      0.02926908	     -7.27617433	      5.42563404	      1.30223092	      9.24496943	      0.16135516	     11.59864860	      0.00000000	      0.00000000	     32.04919928	     -2.87875486	     -6.73245365	      5.01667861	      0.08755756	     -3.97863245	      0.00000000	      0.00000000	      1.21252186	      3.38553213	      3.96835096	      0.00000000	      0.00000000	      0.00000000	      0.00000000	      0.00000000	      0.00000000	      0.00000000	      0.00000000	      0.00000000	      0.00000000	      0.00000000	      0.00000000	      0.00000000	      0.00000000
      0.64000000	      2.02093480	     -7.75881673	     84.92205772	      0.22062014	      0.90750292	      0.01622357	     -7.19811077	      4.88406399	      1.02530823	     10.92944923	      0.19075487	     11.16311274	      0.00000000	      0.00000000	     32.08291371	     -2.53588502	     -7.10491739	      6.18446184	      0.10793922	     -4.58899489	      0.00000000	      0.00000000	      1.34807862	      3.01163127	      3.97107383	      0.00000000	      0.00000000	      0.00000000	      0.00000000	      0.00000000	      0.00000000	      0.00000000	      0.00000000	      0.00000000	      0.00000000	      0.00000000	      0.00000000	      0.00000000	      0.00000000
      0.65000000	      1.78538109	     -7.67584034	     84.89078087	      0.21986332	      0.90719331	      0.00310433	     -7.09935915	      4.38131341	      0.74656208	     12.76260016	      0.22274939	     10.39415201	      0.00000000	      0.00000000	     32.02463217	     -2.25790748	     -7.44362959	      7.50284246	      0.13094930	     -5.19905027	      0.00000000	      0.00000000	      1.39249283	      2.69557350	      3.95095033	      0.00000000	      0.00000000	      0.00000000	      0.00000000	      0.00000000	      0.00000000	      0.00000000	      0.00000000	      0.00000000	      0.00000000	      0.00000000	      0.00000000	      0.00000000	      0.00000000
      0.66000000	      1.57649400	     -7.57758391	     84.86399177	      0.21908509	      0.90707927	     -0.01007550	     -6.81921026	      3.87351824	      0.40981964	     14.92662457	      0.26051874	      9.45039736	      0.00000000	     -0.00000000	     31.92796932	     -2.02008478	     -7.75791811	      8.92374972	      0.15574881	     -5.73336795	      0.00000000	      0.00000000	      1.43484164	      2.41710975	      3.92570233	      0.00000000	     -0.00000000	      0.00000000	      0.00000000	      0.00000000	     -0.00000000	     -0.00000000	     -0.00000000	      0.00000000	      0.00000000	      0.00000000	      0.00000000	      0.00000000	      0.00000000
      0.67000000	      1.40844686	     -7.46357543	     84.82215643	      0.21831675	      0.90718631	     -0.02324177	     -6.38594403	      3.38577590	      0.12870395	     17.33997634	      0.30263968	      8.28104354	     -0.00000000	     -0.00000000	     31.77339183	     -1.83708993	     -7.97906665	     10.38720556	      0.18129094	     -6.17959564	     -0.00000000	      0.00000000	      1.44170226	      2.18895871	      3.88678213	      0.00000000	      0.00000000	     -0.00000000	      0.00000000	      0.00000000	      0.00000000	      0.00000000	      0.00000000	      0.00000000	     -0.00000000	      0.00000000	      0.00000000	      0.00000000	      0.00000000
      0.68000000	      1.27989939	     -7.37171170	     84.79348734	      0.21753483	      0.90741856	     -0.03636200	     -5.74345854	      2.93037950	     -0.09545164	     20.03895404	      0.34974573	      6.97357567	      0.00000000	      0.00000000	     31.59519127	     -1.69119292	     -8.11698382	     11.83887206	      0.20662730	     -6.50542890	      0.00000000	      0.00000000	      1.46947786	      2.00138174	      3.84127618	      0.00000000	      0.00000000	      0.00000000	      0.00000000	      0.00000000	      0.00000000	      0.00000000	      0.00000000	      0.00000000	      0.00000000	      0.00000000	      0.00000000	      0.00000000	      0.00000000
      0.69000000	      1.19120895	     -7.19524883	     84.77751631	      0.21672070	      0.90794912	     -0.04948016	     -5.06528376	      2.49057087	     -0.30726762	     22.87767164	      0.39929070	      5.39773522	      0.00000000	      0.00000000	     31.26370650	     -1.57469676	     -8.24153605	     13.23497025	      0.23099381	     -6.72747917	      0.00000000	      0.00000000	      1.38434103	      1.85495146	      3.79068990	      0.00000000	      0.00000000	      0.00000000	      0.00000000	      0.00000000	      0.00000000	      0.00000000	      0.00000000	      0.00000000	      0.00000000	      0.00000000	      0.00000000	      0.00000000	      0.00000000
      0.70000000	      1.10040692	     -7.06643720	     84.74650627	      0.21588528	      0.90853247	     -0.06249220	     -4.13061890	      2.03383231	     -0.46846833	     25.99519199	      0.45370169	      3.78430340	      0.00000000	      0.00000000	     30.92415915	     -1.45540592	     -8.30916486	     14.54825877	      0.25391502	     -6.79957285	      0.00000000	      0.00000000	      1.34485255	      1.71901817	      3.74415078	      0.00000000	      0.00000000	      0.00000000	      0.00000000	      0.00000000	      0.00000000	      0.00000000	      0.00000000	      0.00000000	      0.00000000	      0.00000000	      0.00000000	      0.00000000	      0.00000000
      0.71000000	      1.01358705	     -6.95361666	     84.70940373	      0.21506692	      0.90924905	     -0.07536884	     -3.02540108	      1.58897035	     -0.53579088	     29.25641089	      0.51062070	      2.14429513	      0.00000000	      0.00000000	     30.53426613	     -1.33350290	     -8.32660015	     15.74443966	      0.27479231	     -6.74599369	      0.00000000	      0.00000000	      1.31306297	      1.60273497	      3.67877501	      0.00000000	      0.00000000	      0.00000000	      0.00000000	      0.00000000	      0.00000000	      0.00000000	      0.00000000	      0.00000000	      0.00000000	      0.00000000	      0.00000000	      0.00000000	      0.00000000
      0.72000000	      0.91280967	     -6.88886236	     84.67778022	      0.21421584	      0.91001944	     -0.08809794	     -1.72592546	      1.15051142	     -0.50528612	     32.62767943	      0.56946043	      0.57032794	      0.00000000	      0.00000000	     30.12655825	     -1.18726193	     -8.33022685	     16.79621515	      0.29314926	     -6.55701879	      0.00000000	      0.00000000	      1.32563099	      1.46640541	      3.56549599	      0.00000000	      0.00000000	      0.00000000	      0.00000000	      0.00000000	      0.00000000	      0.00000000	      0.00000000	      0.00000000	      0.00000000	      0.00000000	      0.00000000	      0.00000000	      0.00000000
      0.73000000	      1.17822274	     -6.46572283	     84.72616948	      0.21351817	      0.91168478	     -0.10087349	     -0.97078479	      1.19944470	     -0.19247109	     35.54500881	      0.62037744	     -0.94549695	     -0.00000000	      0.00000000	     29.16236904	     -1.31501102	     -8.02557750	     17.56998711	      0.30665412	     -6.47510846	      0.00000000	     -0.00000000	      0.87037390	      1.70870191	      3.30506097	      0.00000000	     -0.00000000	      0.00000000	      0.00000000	      0.00000000	     -0.00000000	      0.00000000	      0.00000000	     -0.00000000	      0.00000000	      0.00000000	      0.00000000	     -0.00000000	      0.00000000
      0.74000000	      0.69777542	     -6.71859234	     84.63854475	      0.21249628	      0.91203972	     -0.11312260	      1.10861393	      0.29179772	     -0.34102906	     39.30551639	      0.68601068	     -2.31645168	      0.00000000	      0.00000000	     29.04925959	     -0.82082476	     -8.30171284	     18.43650842	      0.32177777	     -5.81955465	      0.00000000	      0.00000000	      1.25556010	      1.18656533	      3.32486638	      0.00000000	      0.00000000	      0.00000000	      0.00000000	      0.00000000	      0.00000000	      0.00000000	      0.00000000	      0.00000000	      0.00000000	      0.00000000	      0.00000000	      0.00000000	      0.00000000
      0.75000000	      0.58362179	     -6.77633948	     84.61476300	      0.21162537	      0.91300150	     -0.12526711	      2.84365175	     -0.07925393	     -0.14094766	     42.60329902	      0.74356784	     -3.39169867	      0.00000000	      0.00000000	     28.58816111	     -0.62482703	     -8.28352176	     19.05160127	      0.33251317	     -5.34243427	      0.00000000	      0.00000000	      1.34553132	      1.06418184	      3.20226444	      0.00000000	      0.00000000	      0.00000000	      0.00000000	      0.00000000	      0.00000000	      0.00000000	      0.00000000	      0.00000000	      0.00000000	      0.00000000	      0.00000000	      0.00000000	      0.00000000
